# xmcd
#
# Track frame offsets: 
#        150
#        11889
#        31135
#        49355
#        64559
#        76192
#        95299
#        103522
#        124075
#        138874
#        155120
#        166925
#        182680
#        196008
#        212111
#        224784
#
# Disc length: 3188 seconds
#
# Revision: 0
# Processed by: cddbd v1.5.2PL0 Copyright (c) Steve Scherf et al.
# Submitted via: ExactAudioCopy v1.3
#
DISCID=db0c7210
DTITLE=Dailey and Vincent - The Sounds Of Christmas - Cracker Barrel  Ex
DTITLE=clusive
DYEAR=2018
DGENRE=Christmas
TTITLE0=Rocking Around The Christmas Tree
TTITLE1=Mary Did You Know
TTITLE2=Road To Bethlehem (feat. Dolly Parton)
TTITLE3=Go Thee Down
TTITLE4=Let It Snow
TTITLE5=The Spirit Of Christmas
TTITLE6=Carol Of The Bells
TTITLE7=It's A Very Merry Christmas
TTITLE8=Mr. Grinch
TTITLE9=Silver Bells (bonus track)
TTITLE10=Frosty The Snowman
TTITLE11=Tonight It's Christmas (feat. Ricky Scaggs)(bonus track)
TTITLE12=Christmas Medley
TTITLE13=Jingle Bells
TTITLE14=Little Town Of Bethlehem
TTITLE15=Go Tell It On The Mountain
EXTD=
EXTT0=
EXTT1=
EXTT2=
EXTT3=
EXTT4=
EXTT5=
EXTT6=
EXTT7=
EXTT8=
EXTT9=
EXTT10=
EXTT11=
EXTT12=
EXTT13=
EXTT14=
EXTT15=
PLAYORDER=
